inDegrees=yes
name=ik_data_arm_r
DataType=double
version=3
OpenSimVersion=4.5
endheader
time	pelvis_tilt	pelvis_list	pelvis_rotation	pelvis_tx	pelvis_ty	pelvis_tz	hip_flexion_r	hip_adduction_r	hip_rotation_r	knee_angle_r	knee_angle_r_beta	ankle_angle_r	subtalar_angle_r	mtp_angle_r	hip_flexion_l	hip_adduction_l	hip_rotation_l	knee_angle_l	knee_angle_l_beta	ankle_angle_l	subtalar_angle_l	mtp_angle_l	lumbar_extension	lumbar_bending	lumbar_rotation	arm_flex_r	arm_add_r	arm_rot_r	elbow_flex_r	pro_sup_r	wrist_flex_r	wrist_dev_r	arm_flex_l	arm_add_l	arm_rot_l	elbow_flex_l	pro_sup_l	wrist_flex_l	wrist_dev_l
75	-2.758872997066284	-12.24983671857441	-23.78747262933696	0	0.9399999999999999	0	43.6215299297058	-10.10511615932178	0	60.49459269195254	1.055829822127472	-5.013925721907052	0	0	43.6215299297058	-10.10511615932178	0	60.49459269195254	1.055829822127472	-5.013925721907052	0	0	-1.62339318275329	-14.33872094107395	-24.90470069052599	-1.830250944930047	-21.01078672584038	-22.04816493183842	34.68226355064014	45.01025327130228	0	8.124691092799616e-49	0	-11.95298576825586	0	75.43787835757736	45.01025327130228	0	8.124691092799616e-49
76	-2.462438071864405	-11.63785511158768	-21.74266216815653	0	0.9399999999999999	0	43.63618104468682	-10.10246811581561	0	60.48931607933995	1.05573772786403	-5.013506757204506	0	0	43.63618104468682	-10.10246811581561	0	60.48931607933995	1.05573772786403	-5.013506757204506	0	0	-1.195455697861535	-13.5429225120014	-22.98768833983484	-1.30572909792164	-19.99235084392921	-20.40686675893035	31.94205880921699	45.01003267451106	0	0	0	-11.97281362319765	0	75.43322683376913	45.01003267451106	0	0
77	-1.934297759290644	-10.9501919126515	-19.02918028805987	0	0.9399999999999999	0	43.65270392537222	-10.09949725196667	0	60.48337271168397	1.055633996529776	-5.013037416625679	0	0	43.65270392537222	-10.09949725196667	0	60.48337271168397	1.055633996529776	-5.013037416625679	0	0	-0.4498333149894444	-12.56056862734995	-20.47111514999179	-0.4113234353929815	-18.64038380687465	-18.29855268835286	26.31653699586852	45.0097848978068	0	1.002566242126236e-35	0	-11.99521817229194	0	75.42798104091531	45.0097848978068	0	1.002566242126236e-35
78	-1.88103593274212	-9.756289546395687	-17.38912102633762	0	0.9399999999999999	0	43.66618530006382	-10.09713995509419	0	60.47851626085361	1.055549235472825	-5.012668649657894	0	0	43.66618530006382	-10.09713995509419	0	60.47851626085361	1.055549235472825	-5.012668649657894	0	0	-0.5038856191804268	-11.32838193066303	-18.82976848158387	-0.5468694675324859	-17.39499380342587	-16.6887907628337	24.11047808352068	45.00958685767542	0	8.343918109127456e-55	0	-12.01363180580094	0	75.42370085454075	45.00958685767542	0	8.343918109127456e-55
79	-1.162021437208297	-8.905694811236579	-14.8640723481663	0	0.9399999999999999	0	43.679613315729	-10.09480135564832	0	60.4736892625215	1.055464988458942	-5.012303259060345	0	0	43.679613315729	-10.09480135564832	0	60.4736892625215	1.055464988458942	-5.012303259060345	0	0	0.3328213773499651	-10.1956930381206	-16.47808042735105	0.3458253806802215	-15.92055511590358	-14.68079530834373	18.3220991056547	45.00939020407187	0	-2.694034605743505e-36	0	-12.03199735206624	0	75.41943760413682	45.00939020407187	0	-2.694034605743505e-36
80	-0.8072701017636346	-7.846160338857578	-12.71527741353456	0	0.9399999999999999	0	43.69188671341043	-10.09271679996017	0	60.46927040405068	1.055387864829446	-5.011980448844137	0	0	43.69188671341043	-10.09271679996017	0	60.46927040405068	1.055387864829446	-5.011980448844137	0	0	0.7147098266368392	-8.988817392566494	-14.41292630284036	0.7326929481453557	-14.52867922804048	-12.79700460437568	15.34318041008749	45.00921375679959	0	9.106994406938317e-56	0	-12.04889282279586	0	75.41554090833972	45.00921375679959	0	9.106994406938317e-56
81	0.02345140397925196	-6.639012566809273	-10.15645801549045	0	0.9399999999999999	0	43.70492184177289	-10.09052913714334	0	60.46458150812106	1.055306028157191	-5.011643101228486	0	0	43.70492184177289	-10.09052913714334	0	60.46458150812106	1.055306028157191	-5.011643101228486	0	0	1.58866900938382	-7.52959676506498	-12.01063684332948	1.592845419327861	-12.74000948913047	-10.69253626309	11.54730824477588	45.00902800447275	0	-3.371211508301322e-36	0	-12.06689307001379	0	75.41140235796124	45.00902800447275	0	-3.371211508301322e-36
82	0.2905270819592571	-5.243415294397536	-7.924781435548576	0	0.9399999999999999	0	43.71862568834821	-10.08828073169979	0	60.45964114119637	1.055219802488099	-5.011299050903639	0	0	43.71862568834821	-10.08828073169979	0	60.45964114119637	1.055219802488099	-5.011299050903639	0	0	1.8469021339226	-6.007913166151988	-9.854692166184153	1.810014672499969	-11.03522538517356	-8.680580296789966	11.05954734411202	45.00883598904338	0	3.177037180390365e-50	0	-12.08593582710325	0	75.40705146994375	45.00883598904338	0	3.177037180390365e-50
83	0.9934995324949752	-3.898703324725378	-5.894712025503896	0	0.9399999999999999	0	43.72900578915856	-10.08659613085402	0	60.45590392789794	1.055154575811192	-5.011042210914823	0	0	43.72900578915856	-10.08659613085402	0	60.45590392789794	1.055154575811192	-5.011042210914823	0	0	2.529606089967335	-4.500331297366603	-7.933122212591917	2.425463906561535	-9.291743383146612	-6.956319461261799	8.117592454286399	45.00869172698251	0	0	0	-12.10040398595386	0	75.40375584259309	45.00869172698251	0	0
84	0.6251590668942618	-2.682113880047453	-4.257345896897303	0	0.9399999999999999	0	43.74002816721745	-10.08483492151043	0	60.4519325936628	1.055085262953091	-5.01077512957781	0	0	43.74002816721745	-10.08483492151043	0	60.4519325936628	1.055085262953091	-5.01077512957781	0	0	2.138805517368857	-3.244019683120497	-6.312229707452263	1.991887402337253	-7.976511035485966	-5.344224326906162	8.342237125378213	45.00854029971296	0	0	0	-12.11583232585334	0	75.40025628275551	45.00854029971296	0	0
85	-0.5686228522860672	-1.600137998452378	-3.140633836891516	0	0.9399999999999999	0	43.74763130979603	-10.08363713291432	0	60.44919482938478	1.055037479952296	-5.010594404640551	0	0	43.74763130979603	-10.08363713291432	0	60.44919482938478	1.055037479952296	-5.010594404640551	0	0	0.9145571260671247	-2.200370062179171	-5.16285390402334	0.7258780219388421	-6.972365637714491	-4.071904055850434	9.886795221589651	45.00843693067777	0	0	0	-12.12651296402558	0	75.39784230890797	45.00843693067777	0	0
86	-0.8398043668211137	-0.3989551303372155	-2.089552218626844	0	0.9399999999999999	0	43.75464310897816	-10.0825431855785	0	60.44666805524136	1.054993379424039	-5.010429861420582	0	0	43.75464310897816	-10.0825431855785	0	60.44666805524136	1.054993379424039	-5.010429861420582	0	0	0.6009165664105655	-0.9950763377569922	-4.112486053809848	0.3459744264477855	-5.723069937645349	-3.003089746366797	10.08271530055045	45.0083422974324	0	1.388224669419732e-50	0	-12.1363915486519	0	75.39561607937291	45.0083422974324	0	1.388224669419732e-50
87	-1.617685157938503	0.6063547645728536	-1.205881630464111	0	0.9399999999999999	0	43.76139767013037	-10.08149612714211	0	60.44423505464807	1.054950915552983	-5.010272704994358	0	0	43.76139767013037	-10.08149612714211	0	60.44423505464807	1.054950915552983	-5.010272704994358	0	0	-0.2125008995395051	-0.007090294201560219	-3.217025331146552	-0.5191638340109339	-4.753431554050508	-2.035458312915898	9.732334778042402	45.00825157445105	0	0	0	-12.14592514081852	0	75.39347151918361	45.00825157445105	0	0
88	-1.978376478336775	1.117021950716149	-0.529729476144433	0	0.9399999999999999	0	43.76525585157577	-10.08089931018853	0	60.44284921690046	1.054926728121389	-5.010183215747433	0	0	43.76525585157577	-10.08089931018853	0	60.44284921690046	1.054926728121389	-5.010183215747433	0	0	-0.5943032851297922	0.4936030450835898	-2.533663229151335	-0.9273852074331502	-4.271171271237677	-1.318048242885772	8.903854933917378	45.00819982816436	0	0	0	-12.15137170216699	0	75.39224655395064	45.00819982816436	0	0
89	-2.363761486908263	1.392211897209845	-0.2803735449974217	0	0.9399999999999999	0	43.76877336301244	-10.08035805468787	0	60.44158494789946	1.054904662464691	-5.010102191763671	0	0	43.76877336301244	-10.08035805468787	0	60.44158494789946	1.054904662464691	-5.010102191763671	0	0	-0.9902118151675631	0.7641291270603211	-2.280622178964613	-1.336260198588597	-4.025554326989501	-1.033672565712875	8.538644652009888	45.00815283925332	0	0	0	-12.15634542942428	0	75.39112974931932	45.00815283925332	0	0
90	-2.962108196814381	1.549154478801089	-0.08193778655769969	0	0.9399999999999999	0	43.77428199519835	-10.07952212828689	0	60.43959810435767	1.054869985503165	-5.00997762735441	0	0	43.77428199519835	-10.07952212828689	0	60.43959810435767	1.054869985503165	-5.00997762735441	0	0	-1.599226277862599	0.917535205032454	-2.081405519260692	-1.95234457564632	-3.913923953037235	-0.7931574565344972	9.181101651984102	45.00808001679264	0	0	0	-12.16416672936333	0	75.38938076076948	45.00808001679264	0	0
91	-3.054263389114848	1.586277139728002	0.1082189229370331	0	0.9399999999999999	0	43.77439770593332	-10.07949606909773	0	60.439565368419	1.054869414153251	-5.009973366728516	0	0	43.77439770593332	-10.07949606909773	0	60.439565368419	1.054869414153251	-5.009973366728516	0	0	-1.696751313691891	0.9493504803992566	-1.891838346336963	-2.054003109766884	-3.890044944840452	-0.5962997664703527	9.401597282687028	45.00807792025882	0	0	0	-12.16430437837144	0	75.38934402769654	45.00807792025882	0	0
